<svg version="1.2" xmlns="http://www.w3.org/2000/svg" viewBox="0 0 367 390" width="367" height="390">
	<title>logo-no-background-svg</title>
	<style>
		.s0 { fill: #7bae37 } 
		.s1 { opacity: .5;fill: #7bae37;stroke: #000000;stroke-width: 2.7 } 
		.s2 { opacity: .7;fill: #7bae37;stroke: #000000;stroke-width: 2.7 } 
		.s3 { fill: #7bae37;stroke: #000000;stroke-width: 2.7 } 
	</style>
	<g id="Layer">
		<g id="Layer">
			<g id="tight-bounds">
				<g id="Layer">
					<g id="Layer">
						<g id="Layer">
							<g id="Layer">
								<g id="Layer">
									<g id="textblocktransform">
										<g id="textblock">
											<g id="Layer">
												<g id="Layer">
													<g id="Layer">
														<g id="Layer">
															<path id="text-0" fill-rule="evenodd" class="s0" d="m578.9 63.9v186.3h-24.7v-86.1h-94v86.1h-24.5v-186.3h24.5v80.1h94v-80.1zm97.3 188.9q-28.1 0-45.8-18.5-17.7-18.5-17.7-49.5v-4.3q0-20.6 7.9-36.8 7.9-16.2 22-25.3 14.2-9.2 30.7-9.2 27 0 42 17.8 15 17.8 15 50.9v9.9h-93.9q0.6 20.4 12 33.1 11.5 12.5 29.2 12.5 12.5 0 21.2-5 8.7-5.2 15.2-13.6l14.5 11.3q-17.4 26.7-52.3 26.7zm-2.9-124.1q-14.3 0-24.1 10.4-9.7 10.4-12 29.2h69.4v-1.8q-1-18-9.7-27.9-8.8-9.9-23.6-9.9zm194.7 121.5h-24.8q-2.1-4.1-3.4-14.6-16.5 17.2-39.4 17.2-20.5 0-33.6-11.6-13.1-11.6-13.1-29.3 0-21.7 16.5-33.6 16.4-12 46.2-12h23.1v-10.9q0-12.4-7.5-19.7-7.4-7.4-21.8-7.4-12.7 0-21.3 6.4-8.6 6.4-8.6 15.5h-23.8q0-10.4 7.4-20 7.3-9.7 19.9-15.3 12.6-5.7 27.8-5.7 23.9 0 37.5 12 13.5 11.9 14 33v63.6q0 19.1 4.9 30.4zm-64.1-18.1q11.1 0 21.1-5.7 10-5.8 14.5-15v-28.4h-18.6q-43.5 0-43.5 25.5 0 11.1 7.4 17.4 7.4 6.2 19.1 6.2zm122.1-178.4v196.5h-23.7v-196.5zm46.3 24.5h23.7v33.5h25.8v18.4h-25.8v85.8q0 8.3 3.4 12.5 3.5 4.1 11.8 4.1 4.1 0 11.3-1.5v19.2q-9.4 2.5-18.2 2.5-15.9 0-23.9-9.6-8.1-9.5-8.1-27.2v-85.8h-25.2v-18.4h25.2zm224.1-14.3v186.3h-24.7v-86.1h-93.9v86.1h-24.6v-186.3h24.6v80.1h93.9v-80.1zm126 186.3l-0.5-13.7q-13.8 16.2-40.6 16.2-22.2 0-33.7-12.9-11.6-12.8-11.7-38v-90.1h23.6v89.5q0 31.5 25.7 31.5 27.1 0 36-20.3v-100.7h23.7v138.5zm175.8-69.8v2q0 31.8-14.6 51-14.6 19.3-39.2 19.3-26.2 0-40.5-18.5l-1.2 16h-21.8v-196.6h23.7v73.4q14.4-17.8 39.6-17.8 25.2 0 39.6 19 14.4 19.1 14.4 52.2zm-23.7-0.6q0-24.2-9.3-37.4-9.4-13.1-26.9-13.1-23.4 0-33.7 21.7v59.9q10.9 21.8 33.9 21.8 17.1 0 26.5-13.3 9.5-13.1 9.5-39.6z"/>
														</g>
													</g>
												</g>
											</g>
											<g id="Layer">
												<g id="Layer">
													<g id="Layer">
														<g id="Layer">
															<path id="text-1" fill-rule="evenodd" class="s0" d="m448.2 321h-8v13.3h-4.5v-34.1h12.6q5.6 0 8.7 2.9 3.2 2.9 3.2 7.6 0 4.9-3.1 7.6-3.1 2.7-8.9 2.7zm-8-17v13.3h8.1q3.6 0 5.5-1.7 1.9-1.7 1.9-4.9 0-3-1.9-4.8-1.9-1.9-5.3-1.9zm52 12.2v2.2q0 5-1.7 8.7-1.7 3.8-4.7 5.7-3.1 2-7.3 2-4 0-7.1-2-3.1-1.9-4.8-5.6-1.8-3.7-1.8-8.5v-2.5q0-4.9 1.7-8.6 1.7-3.8 4.8-5.8 3.2-2 7.2-2 4.1 0 7.2 2 3.1 1.9 4.8 5.7 1.7 3.8 1.7 8.7zm-4.4 2.5v-2.5q0-6.1-2.5-9.3-2.4-3.3-6.8-3.3-4.3 0-6.7 3.3-2.5 3.2-2.5 9v2.5q0 5.9 2.4 9.2 2.5 3.4 6.8 3.4 4.4 0 6.8-3.2 2.4-3.2 2.5-9.1zm15.7-18.5v30.5h16.2v3.6h-20.7v-34.1zm26.1 0v34.1h-4.5v-34.1zm30.7 34.1l-3.2-8.9h-14.3l-3.2 8.9h-4.7l13.1-34.1h3.9l13 34.1zm-10.4-28.5l-5.7 16h11.6zm19.6-5.6h5.8l11.1 27.8 11.2-27.8h5.8v34.1h-4.5v-13.3l0.4-14.3-11.2 27.6h-3.4l-11.2-27.5 0.5 14.2v13.3h-4.5zm53.7 34.1h-11.9v-34.1h11.2q5.6 0 8.4 2.3 2.8 2.3 2.8 6.8 0 2.4-1.4 4.2-1.4 1.8-3.7 2.9 2.8 0.7 4.4 2.9 1.6 2.2 1.6 5.2 0 4.5-3 7.2-3 2.6-8.4 2.6zm0.1-16h-7.4v12.3h7.4q3.1 0 4.9-1.6 1.8-1.6 1.8-4.5 0-6.2-6.7-6.2zm-7.4-14.4v10.8h6.7q3 0 4.8-1.4 1.7-1.5 1.7-4 0-2.9-1.6-4.1-1.6-1.3-5-1.3zm44.9-3.7h4.5v23.2q0 4.8-3 7.9-3.1 3-8.2 3.4l-1.2 0.1q-5.6 0-8.9-3.1-3.4-3-3.4-8.3v-23.2h4.4v23.1q0 3.7 2.1 5.7 2 2.1 5.8 2.1 3.8 0 5.8-2.1 2.1-2 2.1-5.7zm16.1 0v30.4h16.2v3.7h-20.7v-34.1zm43.8 34.1l-3.2-8.9h-14.3l-3.2 8.9h-4.7l13-34.1h4l13 34.1zm-10.4-28.5l-5.8 15.9h11.6zm40.2-5.5v3.7h-11v30.4h-4.4v-30.4h-11v-3.7zm30.7 16v2.1q0 5-1.7 8.7-1.7 3.8-4.8 5.8-3.1 1.9-7.2 1.9-4 0-7.2-2-3.1-1.9-4.8-5.6-1.7-3.7-1.8-8.5v-2.4q0-5 1.7-8.7 1.8-3.8 4.9-5.8 3.1-2 7.1-2 4.1 0 7.3 2 3.1 1.9 4.8 5.7 1.7 3.8 1.7 8.8zm-4.5 2.4v-2.5q0-6.1-2.4-9.3-2.5-3.2-6.9-3.2-4.2 0-6.7 3.2-2.4 3.2-2.5 9v2.5q0 5.9 2.5 9.2 2.4 3.4 6.8 3.4 4.3 0 6.7-3.2 2.4-3.1 2.5-9.1zm31.1 15.7l-7.4-13.8h-8v13.8h-4.5v-34.1h11.3q5.8 0 8.9 2.6 3.1 2.6 3.1 7.6 0 3.2-1.8 5.6-1.7 2.3-4.8 3.5l8.1 14.5v0.3zm-15.5-30.4v12.9h7q3.3 0 5.3-1.7 2-1.8 2-4.7 0-3.1-1.9-4.8-1.9-1.7-5.5-1.7zm29.9-3.7v34.1h-4.5v-34.1zm34.5 16v2.1q0 5-1.7 8.7-1.7 3.8-4.8 5.8-3.1 1.9-7.2 1.9-4.1 0-7.2-2-3.1-1.9-4.8-5.6-1.7-3.7-1.8-8.5v-2.4q0-5 1.7-8.7 1.8-3.8 4.9-5.8 3.1-2 7.1-2 4.1 0 7.3 2 3.1 1.9 4.8 5.7 1.7 3.8 1.7 8.8zm-4.5 2.4v-2.5q0-6.1-2.4-9.3-2.5-3.2-6.9-3.2-4.2 0-6.7 3.2-2.4 3.2-2.5 9v2.5q0 5.9 2.5 9.2 2.5 3.4 6.8 3.4 4.3 0 6.7-3.2 2.4-3.1 2.5-9.1zm35.6 2.3h-8v13.4h-4.5v-34.1h12.6q5.6 0 8.7 2.8 3.2 2.9 3.2 7.6 0 4.9-3.1 7.6-3.1 2.7-8.9 2.7zm-8-17v13.3h8.1q3.6 0 5.5-1.7 1.9-1.7 1.9-4.9 0-3-1.9-4.8-1.9-1.9-5.3-1.9zm45.7 30.4l-7.4-13.8h-8v13.8h-4.5v-34.1h11.3q5.7 0 8.8 2.6 3.1 2.6 3.1 7.6 0 3.2-1.7 5.6-1.7 2.3-4.8 3.5l8 14.5v0.3zm-15.4-30.4v12.9h6.9q3.4 0 5.4-1.7 1.9-1.8 1.9-4.7 0-3.1-1.8-4.8-1.9-1.7-5.5-1.7zm29.9-3.7v34.1h-4.5v-34.1zm9.8 0l9.7 28.1 9.7-28.1h5l-12.7 34.1h-4l-12.6-34.1zm49.3 34.1l-3.3-8.9h-14.3l-3.2 8.9h-4.6l13-34.1h3.9l13.1 34.1zm-10.4-28.6l-5.8 16h11.6zm40.1-5.6v3.7h-10.9v30.4h-4.5v-30.4h-10.9v-3.7zm30.6 16v2.2q0 5-1.7 8.7-1.7 3.7-4.8 5.7-3.1 2-7.2 2-4 0-7.1-2-3.1-2-4.9-5.7-1.7-3.6-1.7-8.4v-2.5q0-4.9 1.7-8.7 1.7-3.8 4.8-5.8 3.1-2 7.2-2 4.1 0 7.2 2 3.1 2 4.8 5.8 1.7 3.7 1.7 8.7zm-4.5 2.5v-2.5q0-6.1-2.4-9.4-2.5-3.2-6.8-3.2-4.3 0-6.7 3.2-2.5 3.3-2.6 9v2.6q0 5.8 2.5 9.2 2.5 3.4 6.8 3.4 4.4 0 6.8-3.2 2.3-3.2 2.4-9.1z"/>
														</g>
													</g>
												</g>
											</g>
										</g>
									</g>
								</g>
							</g>
							<g id="Layer">
								<g id="Layer">
									<g id="Layer">
										<path id="Layer" class="s1" d="m0 0h106.2v388.5h-106.2z"/>
										<path id="Layer" class="s2" d="m129.6 0h106.2v388.5h-106.2z"/>
										<path id="Layer" class="s3" d="m259.1 0h106.2v388.5h-106.2z"/>
									</g>
								</g>
							</g>
						</g>
					</g>
				</g>
			</g>
		</g>
	</g>
</svg>